<?xml version="1.0" standalone="no"?>
<!DOCTYPE svg PUBLIC "-//W3C//DTD SVG 20010904//EN"
 "http://www.w3.org/TR/2001/REC-SVG-20010904/DTD/svg10.dtd">
<svg version="1.0" xmlns="http://www.w3.org/2000/svg"
 width="217.000000pt" height="217.000000pt" viewBox="0 0 217.000000 217.000000"
 preserveAspectRatio="xMidYMid meet">
<metadata>
Created by potrace 1.11, written by Peter Selinger 2001-2013
</metadata>
<g transform="translate(0.000000,217.000000) scale(0.100000,-0.100000)"
fill="#000000" stroke="none">
<path d="M30 1085 l0 -1085 1055 0 1055 0 0 1085 0 1085 -1055 0 -1055 0 0
-1085z m1282 875 c132 -19 290 -82 383 -153 51 -39 143 -131 177 -177 112
-154 169 -351 133 -462 -24 -75 -146 -315 -204 -401 -64 -94 -219 -260 -238
-253 -8 3 -11 1 -8 -4 3 -6 0 -10 -7 -10 -10 0 -9 -3 2 -11 12 -8 11 -9 -5 -5
-11 3 -31 -1 -45 -9 -14 -8 -20 -15 -15 -15 25 -1 -23 -20 -52 -20 -43 0 -50
16 -19 41 14 11 26 27 26 35 0 8 7 14 15 14 18 0 19 12 3 29 -8 7 -1 6 17 -3
17 -9 33 -12 38 -7 5 5 15 7 22 4 7 -2 27 2 43 11 16 8 32 12 36 9 3 -4 6 -1
6 4 0 13 27 46 83 104 35 35 38 44 15 40 -4 0 -10 8 -13 19 -6 18 -8 19 -22 4
-11 -11 -19 -12 -27 -4 -8 8 -7 13 2 19 8 5 13 11 13 15 -3 17 0 26 7 25 26
-4 62 3 62 13 0 6 -3 8 -6 5 -4 -3 -15 -2 -25 4 -11 5 -19 6 -19 1 0 -4 -17
-8 -37 -9 -21 -1 -54 -4 -73 -8 -26 -5 -31 -4 -20 4 8 6 25 11 38 11 24 0 25
1 16 24 -6 15 -7 15 -18 0 -7 -9 -24 -17 -38 -17 -14 -1 -24 -5 -22 -8 2 -4
-3 -9 -11 -13 -8 -3 -15 -13 -14 -23 0 -11 3 -13 6 -5 2 6 14 12 25 12 30 0 5
-27 -33 -35 -41 -9 -38 -29 4 -21 17 3 38 15 46 26 14 21 41 27 41 10 0 -5 5
-10 11 -10 5 0 8 4 5 8 -2 4 4 13 14 20 28 17 35 -3 9 -29 -14 -14 -28 -19
-45 -15 -13 4 -24 2 -24 -3 0 -15 41 -24 53 -12 13 13 31 15 23 2 -3 -5 2 -15
11 -22 9 -8 14 -9 10 -3 -6 11 21 29 30 21 7 -7 -20 -57 -28 -52 -4 3 -10 -4
-14 -15 -4 -11 -11 -18 -16 -14 -5 3 -9 2 -8 -3 6 -36 -40 -47 -107 -27 -27 8
-46 9 -49 3 -4 -5 -18 -9 -33 -9 -15 0 -40 -9 -57 -20 -16 -11 -41 -20 -55
-21 -14 0 -19 -3 -12 -6 6 -2 10 -9 6 -14 -8 -14 -24 -11 -24 6 0 8 -5 15 -11
15 -5 0 -7 -5 -3 -12 5 -7 3 -8 -7 -2 -29 18 -63 14 -154 -16 -70 -23 -108
-30 -148 -28 -31 1 -53 6 -51 10 5 9 -53 21 -65 14 -5 -4 -12 0 -15 6 -3 7 -5
4 -3 -7 1 -13 12 -22 32 -26 27 -6 27 -7 5 -7 -36 -1 -55 9 -81 42 l-22 29 21
-12 c36 -19 25 -5 -13 18 -30 17 -39 19 -55 8 -11 -6 -20 -15 -20 -19 0 -5 -6
-8 -13 -8 -8 0 -22 -19 -32 -43 -10 -23 -20 -45 -23 -50 -2 -4 3 -4 12 -1 9 3
13 10 10 15 -3 5 -1 9 5 9 5 0 11 -5 13 -12 3 -7 9 -8 18 -3 8 5 27 10 43 12
24 3 27 0 22 -17 -4 -11 -2 -20 4 -20 6 0 11 7 11 15 0 8 5 15 10 15 17 0 11
-30 -7 -36 -10 -3 -26 -10 -35 -15 -10 -5 -24 -6 -33 -3 -9 4 -27 1 -40 -6
-20 -11 -27 -11 -40 0 -8 7 -25 10 -39 6 -16 -4 -26 -1 -30 9 -3 8 -17 15 -31
15 -14 0 -25 5 -25 10 0 6 5 10 10 10 6 0 10 5 10 11 0 6 -5 7 -12 2 -16 -9
-60 -5 -72 8 -6 5 -22 9 -37 9 -19 0 -28 6 -32 21 -4 16 -11 20 -27 16 -15 -4
-24 2 -36 25 -12 23 -18 27 -29 18 -18 -15 -35 -5 -35 21 0 10 -6 19 -13 19
-24 0 -28 -13 -10 -32 15 -17 15 -18 -4 -18 -25 0 -49 25 -33 35 5 3 10 16 9
28 0 20 -1 21 -8 3 -4 -11 -10 -15 -13 -10 -18 33 -14 45 33 99 30 34 48 63
45 72 -3 8 -6 20 -6 27 0 7 -16 35 -35 62 -32 43 -35 46 -29 19 7 -27 6 -29
-9 -16 -18 14 -23 61 -8 77 5 5 20 41 34 80 14 39 40 92 58 119 33 50 59 127
59 178 0 42 13 59 85 117 37 28 78 70 93 93 76 119 192 241 286 301 148 94
340 133 528 106z m108 -1448 c0 -19 -47 -52 -74 -52 -9 0 -16 -6 -16 -12 0 -9
-3 -8 -10 2 -12 19 4 45 29 46 12 1 28 2 36 3 8 0 15 8 15 16 0 8 5 15 10 15
6 0 10 -8 10 -18z m-127 -32 c10 -10 9 -12 -6 -6 -10 3 -25 6 -33 6 -9 0 -13
4 -10 9 8 12 33 8 49 -9z m-793 -45 c0 -24 1 -25 23 -10 27 18 37 11 37 -24
l0 -25 21 23 c16 17 24 20 35 10 16 -13 19 -55 5 -63 -5 -4 -22 -1 -38 5 -15
7 -38 11 -50 10 -11 -1 -24 3 -28 8 -3 6 -19 11 -35 11 -38 0 -45 14 -23 50
22 38 53 40 53 5z m280 -40 c0 -17 -6 -26 -17 -27 -10 0 -24 -2 -31 -2 -7 -1
-16 -6 -20 -13 -4 -6 -19 -9 -35 -6 -33 6 -33 28 -1 50 19 12 24 12 36 -1 13
-12 16 -11 26 5 18 28 42 24 42 -6z"/>
<path d="M1481 1905 c1 -19 18 -51 18 -35 0 8 -4 22 -9 30 -5 8 -9 11 -9 5z"/>
<path d="M1470 1839 c0 -5 5 -7 10 -4 6 3 10 8 10 11 0 2 -4 4 -10 4 -5 0 -10
-5 -10 -11z"/>
<path d="M1497 1794 c-3 -3 5 -26 19 -51 13 -25 21 -50 18 -55 -4 -6 2 -8 11
-6 23 4 32 28 12 28 -15 0 -41 54 -38 78 2 12 -11 16 -22 6z"/>
<path d="M1530 1796 c0 -2 7 -9 15 -16 9 -7 15 -8 15 -2 0 5 -7 12 -15 16 -8
3 -15 4 -15 2z"/>
<path d="M1580 1770 c8 -5 20 -10 25 -10 6 0 3 5 -5 10 -8 5 -19 10 -25 10 -5
0 -3 -5 5 -10z"/>
<path d="M1560 1665 c0 -8 -6 -15 -12 -15 -7 0 -3 -8 9 -18 19 -15 20 -19 8
-36 -8 -10 -12 -23 -9 -27 3 -5 -3 -9 -13 -10 -10 0 -13 -3 -5 -6 6 -2 12 -11
12 -19 0 -9 -5 -12 -10 -9 -19 12 -22 -24 -4 -42 17 -17 17 -18 0 -21 -10 -2
-15 -10 -12 -18 3 -8 1 -14 -4 -14 -15 0 -12 -27 3 -33 7 -3 21 1 30 8 20 14
23 29 5 20 -7 -4 -5 0 5 8 21 18 21 25 0 51 -10 12 -14 18 -9 14 5 -4 15 0 24
8 11 11 12 18 3 27 -6 6 -11 16 -11 22 0 5 4 4 9 -3 6 -10 12 -7 25 12 15 24
15 27 -4 46 -11 11 -20 31 -20 45 0 14 -4 25 -10 25 -5 0 -10 -7 -10 -15z m40
-75 c0 -5 -4 -10 -10 -10 -5 0 -10 5 -10 10 0 6 5 10 10 10 6 0 10 -4 10 -10z"/>
<path d="M1674 1629 c2 -9 -1 -22 -7 -28 -6 -6 -8 -14 -4 -18 4 -4 13 -1 19 5
9 9 8 17 -1 34 -6 13 -10 16 -7 7z"/>
<path d="M1720 1626 c0 -2 7 -9 15 -16 9 -7 15 -8 15 -2 0 5 -7 12 -15 16 -8
3 -15 4 -15 2z"/>
<path d="M1508 1613 c7 -3 16 -2 19 1 4 3 -2 6 -13 5 -11 0 -14 -3 -6 -6z"/>
<path d="M1766 1573 c-6 -14 -5 -15 5 -6 7 7 10 15 7 18 -3 3 -9 -2 -12 -12z"/>
<path d="M1382 1554 c-7 -8 -8 -14 -3 -14 10 0 25 19 20 25 -2 1 -10 -3 -17
-11z"/>
<path d="M1145 1540 c-3 -5 -12 -7 -20 -3 -8 3 -15 3 -15 0 0 -13 30 -14 40
-1 7 8 10 14 7 14 -3 0 -8 -4 -12 -10z"/>
<path d="M1226 1538 c3 -4 -4 -8 -15 -8 -12 0 -21 -4 -21 -9 0 -6 9 -9 20 -8
11 1 20 5 20 10 0 5 7 4 15 -3 9 -7 18 -10 22 -6 3 3 1 6 -6 6 -7 0 -11 6 -8
13 3 7 -3 13 -13 13 -10 0 -16 -4 -14 -8z"/>
<path d="M1660 1530 c0 -5 7 -10 16 -10 8 0 12 5 9 10 -3 6 -10 10 -16 10 -5
0 -9 -4 -9 -10z"/>
<path d="M1630 1519 c0 -5 5 -7 10 -4 6 3 10 8 10 11 0 2 -4 4 -10 4 -5 0 -10
-5 -10 -11z"/>
<path d="M667 1499 c7 -7 15 -10 18 -7 3 3 -2 9 -12 12 -14 6 -15 5 -6 -5z"/>
<path d="M650 1473 c0 -23 27 -26 35 -4 3 8 3 12 -1 8 -4 -4 -13 -2 -21 4 -10
9 -13 7 -13 -8z"/>
<path d="M916 1475 c4 -8 11 -15 16 -15 6 0 5 6 -2 15 -7 8 -14 15 -16 15 -2
0 -1 -7 2 -15z"/>
<path d="M1370 1471 c0 -6 4 -13 10 -16 6 -3 7 1 4 9 -7 18 -14 21 -14 7z"/>
<path d="M1007 1449 c4 -13 8 -18 11 -10 2 7 -1 18 -6 23 -8 8 -9 4 -5 -13z"/>
<path d="M1640 1460 c0 -5 5 -10 10 -10 6 0 10 5 10 10 0 6 -4 10 -10 10 -5 0
-10 -4 -10 -10z"/>
<path d="M1714 1456 c5 -16 4 -17 -9 -6 -9 7 -19 10 -23 6 -7 -7 24 -36 39
-36 9 0 3 40 -7 49 -4 3 -4 -3 0 -13z"/>
<path d="M477 1434 l-28 -26 23 -26 c21 -23 21 -25 3 -18 -41 16 -95 19 -110
6 -23 -19 -18 -42 18 -73 17 -16 26 -26 19 -22 -7 3 -12 3 -11 -2 4 -22 -2
-43 -11 -38 -9 6 -14 -8 -11 -27 0 -5 -6 -8 -14 -8 -9 0 -12 6 -8 18 3 9 3 14
-1 10 -5 -4 -9 -25 -9 -47 -2 -34 0 -38 13 -26 16 13 80 9 80 -5 0 -5 -10 -6
-22 -3 -19 4 -20 3 -8 -6 10 -7 11 -11 3 -11 -7 0 -10 -6 -7 -13 2 -7 -4 -13
-15 -14 -17 -1 -18 2 -11 28 5 16 5 29 1 29 -15 0 -31 -25 -32 -50 -1 -19 -2
-21 -6 -6 -13 52 -53 52 -53 1 0 -26 7 -39 30 -55 28 -20 31 -20 46 -5 13 12
14 19 4 30 -8 10 -9 15 -2 15 16 0 25 -36 14 -57 -22 -43 -45 -161 -38 -197 8
-44 23 -52 76 -38 44 11 56 -2 16 -18 -36 -13 -40 -29 -11 -40 38 -14 43 -13
62 16 18 29 19 87 1 132 -5 15 -12 49 -14 76 -3 52 -25 86 -56 86 -11 0 -18 7
-18 20 0 11 4 20 8 20 5 0 29 13 54 30 41 27 88 99 81 122 -2 5 5 8 15 8 15 1
15 2 2 13 -23 18 -53 93 -47 116 3 11 0 22 -6 24 -9 3 -9 11 0 30 15 33 15 33
-20 1z m-37 -194 c7 -14 7 -20 0 -20 -5 0 -10 6 -10 13 0 8 -4 7 -10 -3 -5 -8
-10 -12 -10 -8 0 3 -3 13 -6 22 -9 24 23 20 36 -4z m20 -61 c0 -6 -4 -7 -10
-4 -5 3 -10 11 -10 16 0 6 5 7 10 4 6 -3 10 -11 10 -16z"/>
<path d="M1747 1440 c3 -11 12 -20 20 -20 9 0 13 -6 10 -15 -4 -8 -2 -17 3
-20 15 -9 11 37 -4 58 -18 23 -35 22 -29 -3z"/>
<path d="M528 1423 c7 -3 16 -2 19 1 4 3 -2 6 -13 5 -11 0 -14 -3 -6 -6z"/>
<path d="M1046 1422 c-3 -6 1 -13 10 -16 23 -9 28 -2 10 13 -8 7 -17 8 -20 3z"/>
<path d="M1870 1420 c0 -5 5 -10 11 -10 5 0 7 5 4 10 -3 6 -8 10 -11 10 -2 0
-4 -4 -4 -10z"/>
<path d="M1610 1410 c0 -5 4 -10 8 -10 5 0 8 -10 8 -22 -1 -16 5 -23 18 -23
11 0 21 6 24 13 2 7 -2 10 -12 6 -10 -4 -16 -1 -16 10 0 10 6 14 18 10 9 -3 6
2 -8 10 -30 18 -40 20 -40 6z"/>
<path d="M1667 1408 c4 -7 8 -19 9 -26 3 -20 14 -28 14 -10 0 11 7 14 25 10
15 -2 25 0 25 7 0 7 -5 9 -10 6 -6 -4 -22 0 -35 9 -29 19 -39 20 -28 4z"/>
<path d="M1455 1400 c3 -6 -5 -14 -19 -20 -14 -5 -26 -11 -26 -14 0 -9 62 2
73 14 9 10 9 11 0 6 -8 -4 -13 -1 -13 8 0 9 -5 16 -11 16 -5 0 -7 -5 -4 -10z"/>
<path d="M1040 1380 c-8 -5 -10 -10 -5 -10 6 0 17 5 25 10 8 5 11 10 5 10 -5
0 -17 -5 -25 -10z"/>
<path d="M1150 1380 c0 -5 5 -10 11 -10 5 0 7 5 4 10 -3 6 -8 10 -11 10 -2 0
-4 -4 -4 -10z"/>
<path d="M1278 1383 c7 -3 16 -2 19 1 4 3 -2 6 -13 5 -11 0 -14 -3 -6 -6z"/>
<path d="M1522 1374 c-26 -18 -28 -53 -7 -94 15 -29 35 -40 35 -20 0 6 -4 10
-8 10 -17 0 -8 33 9 37 10 3 21 13 24 24 4 11 12 16 21 12 17 -6 19 13 2 23
-6 4 -17 -1 -25 -12 -13 -18 -13 -17 -11 5 4 30 -11 36 -40 15z m25 -36 c0
-13 -1 -17 -4 -10 -3 6 -9 10 -14 6 -10 -6 -12 9 -2 19 12 13 19 7 20 -15z"/>
<path d="M1344 1369 c-4 -7 -3 -9 4 -5 6 3 15 -2 21 -11 6 -10 11 -13 11 -7 0
20 -27 37 -36 23z"/>
<path d="M1840 1369 c-12 -8 -9 -9 10 -4 23 5 23 5 8 -8 -24 -19 -23 -24 8
-24 19 0 22 2 13 8 -12 8 -12 10 -1 18 11 6 10 10 -3 15 -20 7 -17 8 -35 -5z"/>
<path d="M1755 1362 c-12 -8 -12 -42 -1 -61 5 -8 4 -16 -4 -21 -8 -5 -8 -10
-2 -14 5 -3 17 5 26 19 9 13 12 26 7 30 -5 3 -12 -1 -15 -7 -3 -7 -4 -4 -3 7
2 11 8 19 14 18 6 -1 9 6 6 17 -6 21 -12 24 -28 12z"/>
<path d="M1315 1340 c5 -15 3 -18 -9 -14 -9 3 -23 -2 -32 -11 -11 -11 -20 -13
-27 -6 -7 7 -19 5 -39 -7 -29 -17 -38 -38 -15 -39 6 0 17 -2 22 -3 17 -6 65
22 58 34 -3 6 -3 8 2 4 4 -4 17 -1 29 7 11 8 28 15 38 15 11 0 18 7 17 18 0
10 -3 12 -6 5 -7 -18 -23 -16 -23 2 0 8 -5 15 -11 15 -6 0 -8 -9 -4 -20z m-75
-50 c0 -5 -5 -10 -11 -10 -5 0 -7 -4 -4 -10 3 -6 -1 -7 -9 -4 -17 7 -20 16 -9
27 10 11 33 8 33 -3z"/>
<path d="M1940 1350 c0 -5 5 -10 11 -10 5 0 7 5 4 10 -3 6 -8 10 -11 10 -2 0
-4 -4 -4 -10z"/>
<path d="M1705 1342 c-25 -18 -35 -52 -23 -72 14 -22 10 -28 -18 -33 -21 -3
-31 -20 -15 -25 6 -2 11 1 11 6 0 11 18 11 37 -1 24 -15 41 3 38 41 -2 20 -4
43 -4 50 -1 6 -6 12 -12 12 -6 0 -8 -9 -4 -20 4 -12 2 -20 -5 -20 -6 0 -10 12
-8 28 2 16 8 26 16 24 8 -1 11 2 7 8 -7 12 -7 12 -20 2z"/>
<path d="M600 1320 c-13 -11 -19 -20 -14 -20 14 1 48 29 42 35 -2 3 -15 -4
-28 -15z"/>
<path d="M662 1327 c-8 -10 -6 -13 9 -14 19 -2 26 11 10 21 -5 3 -14 0 -19 -7z"/>
<path d="M710 1320 c0 -20 2 -21 17 -9 12 10 15 11 9 1 -4 -7 -2 -20 5 -28 9
-11 14 -12 20 -3 6 10 11 10 22 1 12 -10 16 -10 20 2 6 16 -8 30 -38 38 -11 3
-28 9 -37 13 -14 6 -18 2 -18 -15z"/>
<path d="M1414 1325 c2 -5 -1 -18 -6 -28 -18 -34 -1 -28 20 7 20 34 20 35 1
33 -11 -1 -18 -6 -15 -12z"/>
<path d="M1646 1325 c4 -8 1 -15 -5 -15 -6 0 -11 -5 -11 -11 0 -8 5 -8 15 1
17 14 20 40 5 40 -5 0 -7 -7 -4 -15z"/>
<path d="M1060 1320 c0 -5 5 -10 10 -10 6 0 10 5 10 10 0 6 -4 10 -10 10 -5 0
-10 -4 -10 -10z"/>
<path d="M1424 1283 c-24 -27 -46 -56 -50 -65 -3 -10 -12 -18 -20 -18 -8 0
-12 -4 -9 -10 3 -5 1 -10 -5 -10 -6 0 -8 -4 -5 -10 3 -5 -2 -23 -11 -39 -19
-33 -64 -47 -96 -30 -13 7 -24 7 -30 1 -11 -11 -48 -4 -48 8 0 4 7 10 15 14 8
3 15 2 15 -3 0 -4 15 -8 33 -8 17 0 27 2 20 4 -7 3 -9 11 -6 19 4 11 9 9 23
-8 15 -19 21 -20 41 -11 23 11 23 12 -8 12 -25 1 -31 5 -27 16 6 16 -4 19 -30
9 -9 -3 -14 -9 -11 -14 10 -16 -77 -1 -89 16 -8 10 -20 15 -29 11 -9 -3 -19
-2 -22 3 -7 11 6 13 43 10 12 -1 22 3 22 9 0 6 -6 8 -14 5 -7 -3 -16 2 -19 10
-10 25 -23 19 -41 -18 -19 -40 -21 -82 -4 -92 8 -5 9 -2 5 9 -7 18 7 32 23 22
7 -4 1 -16 -14 -30 -22 -20 -23 -25 -11 -35 8 -7 15 -22 15 -34 0 -11 9 -48
20 -80 11 -33 20 -68 20 -80 0 -32 -33 -106 -48 -106 -23 0 62 -81 110 -106
55 -28 71 -30 88 -9 7 9 15 13 18 10 3 -3 16 2 29 10 21 14 27 12 24 -7 -1
-11 17 -10 23 0 3 5 35 7 71 6 54 -2 65 1 61 13 -3 8 -1 11 4 8 6 -3 10 -1 10
5 0 6 4 8 10 5 6 -4 4 -16 -6 -33 -12 -20 -12 -22 -1 -9 8 10 21 15 31 11 10
-4 16 -1 16 9 0 9 7 20 16 25 11 6 -3 9 -45 9 -33 0 -58 -3 -56 -7 3 -4 -9
-10 -26 -14 -43 -8 -49 -8 -49 5 0 5 4 8 9 5 5 -3 14 1 21 9 7 8 16 13 20 10
5 -3 12 0 16 6 4 8 3 9 -4 5 -7 -4 -12 -2 -12 3 0 6 5 11 10 11 6 0 10 5 10
11 0 5 -5 7 -10 4 -6 -4 -16 -2 -23 3 -20 16 -80 10 -106 -10 -13 -10 -30 -18
-38 -18 -8 0 -11 -4 -8 -10 3 -5 1 -10 -4 -10 -14 0 -14 13 1 28 10 10 -11 11
-75 3 -5 -1 -5 -6 -1 -13 5 -7 3 -8 -5 -3 -9 5 -9 11 -3 17 6 6 8 16 6 23 -6
14 48 75 67 75 8 0 5 -5 -6 -14 -11 -8 -16 -19 -12 -30 4 -10 3 -15 -3 -11 -5
3 -18 1 -27 -4 -22 -12 -21 -13 42 -15 28 -2 53 2 57 8 5 7 8 6 8 -4 0 -13 1
-13 10 0 6 10 21 14 46 11 26 -2 34 1 29 9 -4 7 -18 9 -34 6 l-26 -7 25 21
c28 22 15 27 -14 5 -27 -21 -38 -19 -24 4 7 11 15 18 19 15 4 -2 18 5 30 16
17 14 20 19 9 20 -9 0 -5 5 9 13 13 6 31 23 40 37 15 25 15 25 -5 8 -30 -26
-41 -22 -16 5 12 13 20 26 16 29 -7 8 -44 -28 -44 -42 0 -5 -5 -10 -10 -10 -6
0 -9 -6 -8 -12 2 -8 -7 -13 -20 -12 -17 0 -21 -4 -17 -17 6 -19 -39 -58 -52
-45 -8 8 29 36 39 30 4 -3 5 2 2 11 -6 14 -8 14 -24 0 -9 -8 -22 -15 -28 -15
-6 0 12 24 39 53 28 28 58 64 67 80 9 15 21 27 26 27 5 0 18 7 28 17 10 9 18
11 18 6 0 -16 42 -24 57 -11 10 8 18 7 31 -4 9 -9 22 -13 29 -11 6 2 17 -5 23
-16 6 -12 16 -21 22 -21 7 0 6 5 -2 15 -10 11 -10 15 0 15 21 0 100 -72 100
-91 0 -11 5 -19 10 -19 6 0 10 -7 10 -15 0 -8 -4 -15 -10 -15 -5 0 -10 -4 -10
-10 0 -13 37 -50 50 -50 17 0 11 19 -10 30 -25 13 -26 30 -2 30 13 0 14 -2 3
-9 -11 -7 -9 -10 8 -16 13 -4 25 -4 28 -1 4 3 1 6 -6 6 -9 0 -8 4 3 15 8 8 19
15 25 15 13 0 10 22 -4 33 -6 6 -6 10 3 14 6 2 12 9 12 14 0 6 -4 8 -8 5 -4
-2 -14 0 -22 5 -11 8 -6 9 18 6 17 -2 32 0 32 5 0 4 3 7 8 6 10 -3 52 25 52
34 0 5 -17 -1 -37 -12 -21 -11 -43 -20 -50 -20 -17 0 -17 27 0 33 9 4 8 8 -3
16 -30 21 -48 -57 -23 -96 18 -27 15 -32 -19 -38 -16 -3 -27 2 -37 17 -12 19
-11 23 10 40 15 12 18 18 9 17 -39 -4 -50 2 -50 26 0 16 -6 25 -15 25 -8 0
-15 -5 -15 -12 0 -20 -21 7 -23 29 0 13 -6 19 -14 16 -7 -3 -13 2 -13 10 0 8
7 18 16 21 9 4 14 9 11 12 -6 6 -66 -33 -79 -51 -4 -5 -16 1 -27 14 -19 21
-22 22 -36 7 -12 -12 -21 -13 -36 -6 -23 13 -24 18 -2 42 9 10 12 18 7 18 -15
0 -28 -14 -44 -43 -8 -16 -16 -24 -18 -18 -2 6 -12 11 -23 11 -10 0 -19 4 -19
9 0 11 29 23 41 16 4 -3 11 6 15 21 5 20 9 23 16 12 7 -9 8 -7 5 9 -3 12 0 24
7 27 7 3 6 8 -4 15 -9 7 -11 11 -3 11 7 0 16 -8 22 -17 7 -14 12 -15 24 -5 9
8 18 9 21 3 3 -5 1 -12 -4 -14 -7 -4 -6 -5 1 -3 6 1 10 6 10 11 0 6 8 19 17
29 16 18 16 18 -5 5 -12 -7 -26 -10 -30 -6 -4 5 -1 12 6 16 7 5 10 14 7 20 -4
6 -2 11 3 11 6 0 11 -5 11 -11 0 -5 5 -7 12 -3 7 5 25 7 40 6 20 -2 28 2 28
13 0 9 10 19 22 24 15 5 18 10 9 15 -6 4 -17 3 -24 -3 -8 -6 -18 -6 -27 -1 -9
5 -22 2 -38 -10 -21 -17 -26 -18 -39 -5 -8 8 -19 15 -24 15 -6 0 -8 4 -5 9 3
4 -9 7 -26 5 -30 -4 -31 -4 -13 16 10 11 22 17 26 14 5 -3 9 2 9 10 0 28 -21
17 -66 -31z m55 -30 c-3 -20 2 -27 11 -13 7 11 12 12 21 3 8 -8 5 -14 -12 -23
-13 -7 -32 -21 -42 -32 -10 -10 -23 -15 -29 -12 -7 5 -1 15 16 29 17 14 24 25
17 29 -12 8 -61 -21 -61 -37 0 -6 -2 -8 -5 -5 -9 8 17 58 26 52 5 -3 9 0 9 5
0 6 11 11 25 11 14 0 24 -3 24 -7z m120 -12 c9 -6 6 -8 -13 -8 -14 0 -23 3
-20 8 7 11 15 11 33 0z m-169 -35 c0 -3 -4 -8 -10 -11 -5 -3 -10 -1 -10 4 0 6
5 11 10 11 6 0 10 -2 10 -4z m78 -15 c-7 -11 -15 -18 -20 -15 -11 7 3 34 18
34 12 0 12 -4 2 -19z m-81 -27 c3 -8 1 -20 -6 -27 -8 -8 -11 -8 -11 2 0 8 -7
10 -20 6 -15 -5 -18 -3 -14 9 3 9 10 13 15 10 5 -3 9 0 9 5 0 17 20 13 27 -5z
m-29 -60 c0 -22 -4 -25 -24 -20 -25 7 -34 -8 -11 -17 7 -4 8 -6 1 -6 -6 -1
-17 6 -24 14 -10 12 -8 16 11 24 13 5 20 10 14 11 -5 1 -1 5 10 10 11 5 21 9
21 9 1 1 2 -11 2 -25z m25 1 c-3 -9 -8 -14 -10 -11 -3 3 -2 9 2 15 9 16 15 13
8 -4z m-253 -19 c0 -9 -40 -13 -46 -5 -3 5 6 9 20 9 14 0 26 -2 26 -4z m114
-30 c22 -4 45 -11 51 -16 7 -5 16 -6 20 -2 5 4 5 -1 2 -10 -8 -23 8 -32 23
-13 7 8 16 15 21 15 5 0 2 -8 -6 -17 -35 -40 -83 -93 -142 -157 -35 -37 -63
-72 -63 -77 0 -5 -6 -9 -14 -9 -8 0 -14 9 -13 19 0 11 5 17 11 14 5 -4 7 1 2
12 -5 14 -4 16 8 6 11 -9 15 -7 18 13 3 14 1 23 -3 20 -5 -3 -9 6 -9 20 0 26
19 38 21 14 0 -10 2 -10 6 0 2 6 9 9 15 6 5 -4 4 4 -3 17 -7 15 -14 19 -17 11
-6 -19 -22 -14 -22 8 0 11 7 20 15 20 9 0 12 6 9 18 -5 13 -4 14 4 3 12 -17
47 -7 36 10 -5 8 1 10 20 7 31 -6 31 -5 9 18 -17 17 -17 17 5 12 12 -3 22 -3
22 1 0 14 -45 30 -77 28 -35 -3 -46 9 -15 16 9 2 19 2 22 1 3 -1 23 -5 44 -8z
m-100 -17 c-3 -5 -10 -7 -15 -3 -5 3 -7 10 -3 15 3 5 10 7 15 3 5 -3 7 -10 3
-15z m436 -13 c0 -11 -19 -15 -25 -6 -3 5 1 10 9 10 9 0 16 -2 16 -4z m-320
-236 c-8 -5 -19 -10 -25 -10 -5 0 -3 5 5 10 8 5 20 10 25 10 6 0 3 -5 -5 -10z
m130 -50 c0 -5 -7 -10 -16 -10 -8 0 -12 5 -9 10 3 6 10 10 16 10 5 0 9 -4 9
-10z m-30 -21 c13 -9 12 -10 -2 -5 -11 3 -19 -2 -23 -15 -7 -20 -25 -27 -25
-9 0 6 5 10 10 10 6 0 10 7 10 15 0 18 9 19 30 4z m-143 -5 c-3 -3 -12 -4 -19
-1 -8 3 -5 6 6 6 11 1 17 -2 13 -5z m37 -21 c-5 -5 -12 -12 -16 -18 -4 -6 -8
-2 -8 8 0 9 7 17 17 17 9 0 12 -3 7 -7z m-34 -33 c0 -5 -5 -10 -11 -10 -5 0
-7 5 -4 10 3 6 8 10 11 10 2 0 4 -4 4 -10z"/>
<path d="M1320 1030 c0 -5 5 -10 11 -10 5 0 7 5 4 10 -3 6 -8 10 -11 10 -2 0
-4 -4 -4 -10z"/>
<path d="M1270 955 c0 -8 8 -11 20 -8 11 3 20 7 20 8 0 1 -9 5 -20 8 -12 3
-20 0 -20 -8z"/>
<path d="M1225 940 c3 -5 10 -10 16 -10 5 0 9 5 9 10 0 6 -7 10 -16 10 -8 0
-12 -4 -9 -10z"/>
<path d="M1285 930 c-3 -5 -2 -10 4 -10 5 0 13 5 16 10 3 6 2 10 -4 10 -5 0
-13 -4 -16 -10z"/>
<path d="M1905 1320 c-4 -6 -11 -8 -16 -5 -5 4 -9 1 -9 -4 0 -6 7 -11 15 -11
8 0 15 5 15 11 0 8 5 7 15 -1 13 -11 14 -10 9 4 -7 18 -20 21 -29 6z"/>
<path d="M1320 1294 c0 -18 17 -27 26 -13 5 8 8 8 14 -1 5 -8 9 -6 12 7 4 14
-1 18 -24 19 -17 1 -28 -4 -28 -12z"/>
<path d="M1828 1303 c6 -2 18 -2 25 0 6 3 1 5 -13 5 -14 0 -19 -2 -12 -5z"/>
<path d="M815 1278 c-4 -10 -16 -20 -27 -23 -18 -6 -18 -9 -4 -30 24 -36 18
-37 -84 -10 -8 2 -15 4 -15 5 0 1 -8 3 -19 5 -10 2 -28 13 -40 24 -30 28 -44
27 -20 -1 10 -13 12 -17 4 -10 -8 6 -21 12 -30 12 -13 -1 -13 -2 0 -13 30 -25
57 -99 30 -82 -6 4 -9 3 -8 -2 5 -15 -64 -102 -77 -97 -7 3 -15 -2 -18 -10 -4
-11 -1 -13 10 -9 14 6 13 2 -3 -23 -31 -44 -36 -54 -27 -54 10 0 45 46 94 122
29 44 31 46 48 30 10 -9 16 -20 14 -24 -2 -4 4 -5 13 -1 12 5 15 3 9 -6 -4 -8
-2 -17 6 -23 11 -8 10 -9 -3 -4 -12 3 -18 0 -18 -10 0 -8 -9 -24 -20 -36 -26
-28 -25 -63 3 -112 44 -79 188 -122 268 -81 37 20 87 87 94 129 5 22 17 38 43
53 31 18 33 22 15 23 -12 0 -25 -4 -28 -10 -13 -20 -32 -9 -49 29 -22 47 -69
97 -125 131 -22 14 -39 30 -37 36 3 6 -1 17 -7 23 -8 8 -8 11 2 11 7 0 10 4 6
9 -3 5 -1 12 5 16 5 3 10 2 10 -4 0 -6 7 -8 15 -5 8 4 15 1 15 -6 0 -10 3 -10
15 0 24 20 18 33 -12 26 -17 -5 -29 -3 -34 6 -6 9 -9 8 -14 -4z m-121 -113
c28 -19 31 -57 6 -80 -17 -15 -19 -14 -25 15 -5 23 -10 28 -19 21 -17 -14 -26
-4 -26 31 0 33 26 38 64 13z m66 -116 c0 -11 -4 -18 -10 -14 -5 3 -7 12 -3 20
7 21 13 19 13 -6z m4 -53 c8 3 16 -5 20 -22 4 -14 10 -24 13 -20 6 6 32 -23
33 -36 0 -5 -8 -8 -19 -8 -22 0 -45 25 -36 40 3 5 0 10 -8 10 -20 0 -40 27
-31 42 5 9 9 9 11 1 3 -7 10 -10 17 -7z m-44 -31 c0 -7 7 -21 16 -29 14 -15
14 -16 -1 -16 -12 0 -16 -6 -12 -20 3 -11 0 -20 -5 -20 -6 0 -8 14 -5 34 4 27
2 34 -8 30 -8 -3 -16 -13 -18 -22 -4 -13 -5 -11 -6 4 0 12 6 27 14 34 8 7 12
17 8 23 -3 6 -1 7 5 3 7 -4 12 -13 12 -21z m87 -97 c18 -7 33 -18 33 -24 0
-18 -31 -22 -61 -8 -15 7 -29 11 -32 8 -4 -5 -3 17 2 34 2 5 27 1 58 -10z"/>
<path d="M760 866 c0 -2 7 -9 15 -16 13 -11 14 -10 9 4 -5 14 -24 23 -24 12z"/>
<path d="M1786 1282 c-4 -6 2 -17 14 -24 24 -15 27 -30 4 -21 -10 4 -17 -2
-21 -16 -4 -18 -11 -21 -29 -17 -17 5 -24 2 -24 -9 0 -8 -8 -15 -18 -15 -17 0
-42 -18 -42 -29 0 -4 11 -6 24 -6 13 0 22 4 19 9 -3 4 0 12 7 16 12 8 70 -19
70 -32 0 -4 6 -6 13 -4 6 1 9 1 5 -1 -13 -8 -9 -22 10 -32 16 -8 18 -6 16 20
-2 32 5 42 25 30 9 -6 10 -11 2 -15 -6 -4 -10 -22 -10 -39 l1 -32 8 30 c5 21
8 24 9 10 0 -12 5 -25 11 -31 13 -13 1 -54 -16 -54 -8 0 -14 -5 -14 -11 0 -6
7 -8 16 -5 9 3 19 6 24 6 5 0 11 13 15 30 4 16 11 32 16 35 5 4 0 15 -10 26
-25 27 -33 59 -15 59 8 0 13 -3 13 -7 -4 -22 2 -43 10 -39 5 4 11 0 14 -6 2
-7 8 -9 13 -5 5 5 1 13 -9 18 -22 13 -23 41 0 32 11 -4 14 -3 9 6 -5 7 -14 10
-22 7 -7 -3 -16 -1 -19 4 -3 4 7 13 22 18 16 6 21 11 11 11 -9 1 -25 4 -35 7
-12 4 -14 3 -5 -3 10 -7 8 -14 -9 -29 -20 -18 -21 -18 -34 -1 -12 17 -14 17
-29 1 -15 -15 -19 -15 -49 0 -18 9 -25 16 -15 16 9 0 20 -5 23 -10 5 -8 11 -7
21 1 12 10 12 14 -3 25 -16 12 -14 13 11 4 36 -13 63 5 34 21 -10 6 -18 17
-18 24 0 8 -6 15 -14 15 -8 0 -16 5 -18 12 -3 9 -6 9 -12 0z m124 -196 c0 -11
-19 -15 -25 -6 -3 5 1 10 9 10 9 0 16 -2 16 -4z"/>
<path d="M1904 1271 c0 -11 5 -17 14 -14 14 6 12 25 -4 30 -5 2 -10 -5 -10
-16z"/>
<path d="M1150 1265 c-11 -13 -10 -14 5 -9 12 5 16 4 12 -3 -4 -6 0 -13 8 -17
8 -3 15 -14 15 -25 0 -15 5 -19 18 -15 14 5 14 4 2 -4 -8 -6 -18 -8 -22 -6 -4
3 -8 0 -8 -6 0 -6 -4 -9 -9 -6 -10 6 -34 -18 -26 -26 9 -8 55 3 55 14 0 5 5 6
10 3 6 -3 10 1 10 10 0 11 5 15 14 12 8 -3 17 1 20 9 3 9 1 12 -4 9 -6 -4 -20
-3 -31 0 -15 5 -18 10 -10 18 16 16 14 30 -4 23 -8 -3 -21 3 -28 15 -13 17
-16 18 -27 4z"/>
<path d="M1280 1270 c-8 -5 -10 -10 -5 -10 6 0 17 5 25 10 8 5 11 10 5 10 -5
0 -17 -5 -25 -10z"/>
<path d="M1107 1253 c-12 -12 -7 -19 14 -20 17 -2 18 1 9 13 -14 16 -14 16
-23 7z"/>
<path d="M1762 1248 c-15 -15 -16 -38 -1 -38 5 0 8 4 5 9 -4 5 -1 11 5 13 7 2
10 10 8 16 -3 10 -7 10 -17 0z"/>
<path d="M1871 1251 c-8 -5 -9 -11 -3 -15 5 -3 12 1 16 9 6 17 6 18 -13 6z"/>
<path d="M1235 1240 c-3 -5 -2 -10 4 -10 5 0 13 5 16 10 3 6 2 10 -4 10 -5 0
-13 -4 -16 -10z"/>
<path d="M1300 1236 c0 -2 7 -6 15 -10 8 -3 15 -1 15 4 0 6 -7 10 -15 10 -8 0
-15 -2 -15 -4z"/>
<path d="M1160 1222 c0 -6 -10 -8 -22 -5 -22 5 -22 5 -3 -10 19 -15 45 -13 45
3 0 5 -4 12 -10 15 -5 3 -10 2 -10 -3z"/>
<path d="M1283 1213 c-7 -3 -13 -9 -13 -14 0 -14 48 -11 56 4 4 6 4 9 -1 5 -4
-4 -13 -4 -19 1 -6 4 -17 6 -23 4z"/>
<path d="M1955 1170 c3 -5 8 -10 11 -10 2 0 4 5 4 10 0 6 -5 10 -11 10 -5 0
-7 -4 -4 -10z"/>
<path d="M1297 1156 c-17 -13 -16 -14 3 -19 15 -4 20 0 20 14 0 22 0 22 -23 5z"/>
<path d="M1598 1141 c12 -11 22 -25 22 -33 0 -10 3 -9 10 2 6 10 10 11 10 3 0
-7 4 -13 9 -13 6 0 9 9 8 20 -1 14 -6 18 -19 14 -11 -3 -20 1 -24 10 -3 9 -14
16 -23 16 -13 -1 -12 -4 7 -19z"/>
<path d="M555 1140 c-3 -5 -1 -10 4 -10 6 0 11 5 11 10 0 6 -2 10 -4 10 -3 0
-8 -4 -11 -10z"/>
<path d="M1564 1129 c-3 -6 0 -15 7 -20 22 -14 36 -10 17 5 -10 7 -15 16 -11
19 3 4 4 7 0 7 -3 0 -9 -5 -13 -11z"/>
<path d="M1712 1133 c-16 -3 -22 -9 -18 -20 3 -8 6 -17 6 -19 0 -9 49 -3 55 7
11 17 -5 25 -16 9 -8 -11 -9 -10 -4 8 3 12 5 21 3 21 -2 -1 -13 -4 -26 -6z"/>
<path d="M1770 1110 c0 -11 5 -20 10 -20 6 0 10 -4 10 -10 0 -5 -8 -9 -17 -8
-45 3 -93 -3 -93 -13 0 -5 5 -7 12 -3 8 5 9 2 5 -9 -5 -14 -2 -15 18 -7 14 5
25 6 25 2 0 -4 4 -1 9 7 5 7 14 10 21 6 9 -6 9 -9 0 -15 -7 -4 -13 -19 -13
-33 -1 -16 -6 -22 -11 -16 -15 14 -22 11 -22 -11 0 -13 5 -19 14 -15 7 3 18 5
23 5 6 0 9 8 7 18 -4 23 22 57 50 66 30 10 28 22 -8 34 -21 8 -28 16 -24 26 3
9 1 16 -5 16 -6 0 -11 -9 -11 -20z"/>
<path d="M1597 1079 c-20 -12 -14 -31 8 -23 14 6 29 34 17 34 -4 0 -15 -5 -25
-11z"/>
<path d="M224 1029 c-3 -5 0 -9 7 -9 7 0 20 -7 29 -15 13 -12 17 -12 17 -2 0
16 -45 39 -53 26z"/>
<path d="M1808 1033 c7 -3 16 -2 19 1 4 3 -2 6 -13 5 -11 0 -14 -3 -6 -6z"/>
<path d="M321 988 c-1 -15 -9 -17 -41 -15 -43 4 -50 -6 -25 -39 13 -17 14 -17
15 -1 0 21 13 22 30 2 7 -8 16 -15 20 -15 12 0 18 44 9 66 -7 17 -8 17 -8 2z"/>
<path d="M1554 971 c-10 -11 -22 -17 -27 -14 -5 3 -3 9 4 14 11 7 9 9 -6 9
-13 0 -27 -13 -40 -37 -11 -20 -26 -42 -33 -50 -7 -7 -10 -18 -7 -24 9 -13 45
18 45 38 0 14 23 43 34 43 3 0 3 -8 0 -17 -5 -17 -5 -17 9 0 8 9 19 17 25 17
11 0 25 30 18 37 -3 3 -12 -4 -22 -16z"/>
<path d="M1574 946 c-13 -28 -1 -56 24 -57 9 0 -5 -11 -33 -24 -40 -18 -44
-22 -22 -21 15 2 33 8 39 14 7 7 17 12 24 12 7 0 15 6 17 13 4 9 6 9 6 -2 1
-8 8 -4 21 10 l19 24 1 -38 c0 -23 -4 -36 -10 -32 -5 3 -10 1 -10 -4 0 -14 30
-14 50 -1 13 9 13 11 0 20 -13 8 -13 10 2 10 15 0 15 4 6 30 -8 24 -13 28 -23
20 -10 -8 -15 -8 -20 0 -5 8 -11 8 -21 -1 -11 -9 -14 -8 -14 5 0 9 -6 16 -14
16 -20 0 -29 -17 -14 -23 8 -3 6 -6 -4 -6 -19 -1 -25 24 -8 34 12 7 13 25 3
25 -5 0 -13 -11 -19 -24z m126 -52 c0 -8 -5 -12 -10 -9 -6 4 -8 11 -5 16 9 14
15 11 15 -7z"/>
<path d="M530 940 c0 -5 5 -10 11 -10 5 0 7 5 4 10 -3 6 -8 10 -11 10 -2 0 -4
-4 -4 -10z"/>
<path d="M560 931 c0 -6 5 -13 10 -16 6 -3 10 1 10 9 0 9 -4 16 -10 16 -5 0
-10 -4 -10 -9z"/>
<path d="M1030 910 c0 -5 5 -10 11 -10 5 0 7 5 4 10 -3 6 -8 10 -11 10 -2 0
-4 -4 -4 -10z"/>
<path d="M1500 911 c0 -6 5 -11 11 -11 5 0 8 -4 5 -9 -4 -5 4 -7 16 -3 16 4
18 7 8 10 -8 3 -21 9 -27 15 -9 6 -13 6 -13 -2z"/>
<path d="M1752 910 c2 -6 7 -11 12 -10 5 1 13 -4 17 -12 6 -9 9 -9 9 -1 0 7
-10 17 -21 24 -16 8 -20 8 -17 -1z"/>
<path d="M274 885 c-8 -19 2 -45 16 -45 5 0 10 7 10 15 0 8 -4 15 -10 15 -5 0
-7 7 -4 15 4 8 3 15 0 15 -4 0 -9 -7 -12 -15z"/>
<path d="M1057 882 c-22 -25 -22 -38 3 -45 13 -3 20 0 20 9 0 8 5 14 10 14 6
0 10 7 10 16 0 8 -4 13 -9 10 -5 -4 -11 -1 -13 5 -2 6 -11 2 -21 -9z"/>
<path d="M1470 858 c0 -5 -11 -6 -24 -2 -21 5 -25 2 -23 -14 1 -16 5 -19 18
-11 25 13 29 11 22 -7 -4 -12 -14 -14 -35 -10 -18 3 -27 2 -23 -4 11 -18 64
-11 75 10 8 15 8 20 -2 20 -7 1 -2 7 12 15 24 13 24 14 3 12 -13 -1 -23 -5
-23 -9z"/>
<path d="M566 848 c-7 -22 -3 -48 7 -48 5 0 4 -7 -3 -15 -7 -8 -16 -12 -21
-10 -4 3 -3 -8 2 -25 10 -27 29 -33 29 -9 0 6 -5 7 -11 3 -7 -4 -10 0 -7 11 4
21 39 29 50 12 12 -19 9 -30 -5 -24 -8 3 -14 -1 -14 -9 0 -9 7 -13 16 -9 13 4
13 2 -1 -8 -19 -15 -13 -31 6 -19 19 12 56 13 56 2 0 -6 4 -9 9 -6 5 3 12 -1
15 -10 4 -11 -1 -18 -14 -21 -11 -3 -20 -12 -20 -20 0 -11 7 -13 24 -9 15 4
28 0 36 -9 10 -12 9 -15 -4 -15 -9 0 -16 -4 -16 -10 0 -6 9 -6 23 -1 18 7 21
15 19 41 -3 23 0 30 9 25 8 -5 10 -4 5 4 -6 9 -11 9 -22 0 -9 -7 -14 -8 -13
-3 5 16 -11 52 -26 58 -8 3 -15 12 -15 20 0 24 58 -4 109 -52 35 -33 42 -45
32 -51 -11 -7 -9 -11 8 -20 25 -14 37 -9 44 19 4 17 2 20 -14 15 -15 -5 -18
-3 -13 12 4 13 3 14 -3 5 -7 -10 -13 -8 -27 7 -17 18 -17 19 1 24 15 3 15 5
-6 14 -16 6 -20 12 -13 17 7 4 12 13 12 19 0 8 -4 7 -9 -2 -8 -12 -17 -11 -58
6 -27 11 -64 19 -82 17 -28 -3 -32 -1 -26 15 3 10 -1 24 -10 31 -13 11 -14 10
-9 -5 5 -13 4 -16 -4 -11 -7 4 -12 12 -12 17 0 6 -7 17 -15 25 -12 12 -16 13
-19 2z"/>
<path d="M1400 840 c0 -5 5 -10 11 -10 5 0 7 5 4 10 -3 6 -8 10 -11 10 -2 0
-4 -4 -4 -10z"/>
<path d="M1067 813 c-5 -7 -5 -13 0 -13 4 0 1 -4 -7 -10 -8 -5 -11 -12 -7 -16
11 -12 29 12 25 32 -2 14 -6 16 -11 7z"/>
<path d="M1493 813 c-7 -2 -13 -11 -13 -18 0 -8 -7 -11 -19 -8 -10 3 -21 1
-24 -4 -3 -5 9 -9 26 -10 25 -1 35 5 44 23 11 24 9 27 -14 17z"/>
<path d="M1695 780 c-18 -8 -17 -9 8 -9 16 -1 26 3 22 9 -3 6 -7 10 -8 9 -1 0
-11 -4 -22 -9z"/>
<path d="M1745 781 c-3 -5 -1 -12 5 -16 5 -3 10 1 10 9 0 18 -6 21 -15 7z"/>
<path d="M335 770 c-3 -5 1 -10 9 -10 8 0 18 5 21 10 3 6 -1 10 -9 10 -8 0
-18 -4 -21 -10z"/>
<path d="M855 760 c3 -5 8 -10 11 -10 2 0 4 5 4 10 0 6 -5 10 -11 10 -5 0 -7
-4 -4 -10z"/>
<path d="M945 761 c-10 -17 11 -21 31 -6 18 14 18 14 -3 15 -12 0 -24 -4 -28
-9z"/>
<path d="M1710 750 c0 -5 5 -10 10 -10 6 0 10 5 10 10 0 6 -4 10 -10 10 -5 0
-10 -4 -10 -10z"/>
<path d="M343 742 c-6 -4 -14 -19 -18 -34 -4 -15 -13 -33 -21 -39 -12 -10 -12
-14 -2 -20 10 -7 9 -9 -4 -9 -19 0 -24 -15 -9 -25 5 -3 17 5 25 17 12 17 13
24 3 30 -6 4 -7 8 -2 8 6 0 16 14 23 30 13 28 42 42 42 20 0 -5 5 -10 12 -10
6 0 3 9 -7 20 -20 22 -24 23 -42 12z"/>
<path d="M1746 737 c3 -10 9 -15 12 -12 3 3 0 11 -7 18 -10 9 -11 8 -5 -6z"/>
<path d="M990 730 c0 -15 21 -23 32 -12 6 6 2 11 -11 15 -12 3 -21 1 -21 -3z"/>
<path d="M891 721 c-9 -6 -5 -8 13 -8 14 0 26 3 26 8 0 11 -21 11 -39 0z"/>
<path d="M573 713 c-15 -5 -18 -33 -4 -33 5 0 11 9 14 20 3 11 4 20 4 19 -1 0
-8 -3 -14 -6z"/>
<path d="M1049 701 c7 -5 10 -14 7 -20 -4 -6 -3 -11 3 -11 5 0 16 -3 25 -6 9
-3 16 -1 16 6 0 6 -5 8 -11 4 -8 -4 -9 0 -4 15 5 18 2 21 -22 21 -20 0 -24 -3
-14 -9z"/>
<path d="M1617 681 c-10 -17 -14 -31 -9 -31 15 0 34 28 30 45 -2 12 -8 8 -21
-14z"/>
<path d="M460 683 c-24 -12 -24 -13 -3 -13 12 0 25 5 28 11 11 16 2 17 -25 2z"/>
<path d="M620 674 c0 -15 -2 -16 -9 -5 -6 9 -11 10 -15 2 -4 -6 -4 -11 1 -11
4 0 2 -4 -5 -8 -7 -5 -15 -25 -19 -45 -4 -30 -2 -37 10 -37 19 0 31 16 18 24
-5 4 -12 0 -14 -6 -3 -8 -6 -6 -6 4 -1 10 9 26 21 37 20 19 22 19 34 3 12 -15
13 -15 14 9 0 15 -7 32 -15 39 -12 10 -15 9 -15 -6z"/>
<path d="M392 660 c-11 -18 -10 -20 13 -18 16 2 25 8 23 17 -5 22 -22 23 -36
1z"/>
<path d="M960 660 c-9 -6 -10 -10 -3 -10 6 0 15 5 18 10 8 12 4 12 -15 0z"/>
<path d="M1010 659 c0 -5 5 -7 10 -4 6 3 10 8 10 11 0 2 -4 4 -10 4 -5 0 -10
-5 -10 -11z"/>
<path d="M1116 645 c7 -18 0 -19 -27 -5 -21 12 -26 1 -7 -18 9 -9 9 -12 -3
-12 -9 0 -18 3 -22 6 -3 4 -24 8 -45 9 -36 3 -39 2 -34 -21 2 -13 9 -27 15
-31 5 -3 7 -1 3 5 -3 6 2 13 11 16 27 8 83 4 83 -6 0 -4 13 -8 29 -8 27 0 29
3 25 28 -7 40 -12 52 -23 52 -6 0 -8 -7 -5 -15z"/>
<path d="M890 630 c0 -25 4 -25 26 -2 17 16 17 16 12 -4 -4 -17 -2 -20 12 -17
17 5 17 6 2 24 -22 25 -52 25 -52 -1z"/>
<path d="M1566 635 c-3 -9 -6 -18 -6 -19 0 -7 51 7 56 15 3 5 -2 6 -11 2 -10
-3 -20 0 -25 6 -5 9 -9 8 -14 -4z"/>
<path d="M377 623 c-4 -3 -7 -11 -7 -17 0 -6 5 -5 12 2 6 6 9 14 7 17 -3 3 -9
2 -12 -2z"/>
<path d="M760 615 c0 -9 6 -12 15 -9 8 4 15 10 15 15 0 5 -7 9 -15 9 -8 0 -15
-7 -15 -15z"/>
<path d="M1300 619 c0 -5 5 -7 10 -4 6 3 10 8 10 11 0 2 -4 4 -10 4 -5 0 -10
-5 -10 -11z"/>
<path d="M800 610 c0 -5 5 -10 11 -10 5 0 7 5 4 10 -3 6 -8 10 -11 10 -2 0 -4
-4 -4 -10z"/>
<path d="M1190 610 c0 -5 7 -10 15 -10 8 0 15 5 15 10 0 6 -7 10 -15 10 -8 0
-15 -4 -15 -10z"/>
<path d="M545 570 c-3 -5 -1 -10 4 -10 6 0 11 5 11 10 0 6 -2 10 -4 10 -3 0
-8 -4 -11 -10z"/>
<path d="M435 550 c3 -5 8 -10 11 -10 2 0 4 5 4 10 0 6 -5 10 -11 10 -5 0 -7
-4 -4 -10z"/>
<path d="M570 550 c0 -5 5 -10 11 -10 5 0 7 5 4 10 -3 6 -8 10 -11 10 -2 0 -4
-4 -4 -10z"/>
<path d="M560 510 c13 -24 17 -25 17 -5 0 8 -6 16 -14 19 -11 4 -11 1 -3 -14z"/>
<path d="M1470 514 c0 -9 5 -14 12 -12 18 6 21 28 4 28 -9 0 -16 -7 -16 -16z"/>
<path d="M1455 480 c4 -6 11 -8 16 -5 14 9 11 15 -7 15 -8 0 -12 -5 -9 -10z"/>
</g>
</svg>
